<?xml version="1.0" encoding="iso-8859-1"?>
<!-- Generator: Adobe Illustrator 19.0.0, SVG Export Plug-In . SVG Version: 6.00 Build 0)  -->
<svg xmlns="http://www.w3.org/2000/svg" xmlns:xlink="http://www.w3.org/1999/xlink" version="1.1" id="Capa_1" x="0px" y="0px" viewBox="0 0 501 501" style="enable-background:new 0 0 501 501;" xml:space="preserve" width="512" height="512">
<g>
	<path style="fill:#FFB23C;" d="M495.5,245c0,135.31-109.69,245-245,245S5.5,380.31,5.5,245S115.19,0,250.5,0   S495.5,109.69,495.5,245z"/>
	<path style="fill:#EE9500;" d="M330.367,83.966l-80.901,80.901c-3.905,3.905-10.237,3.905-14.142,0l-3.663-3.663   c-3.905-3.905-3.905-10.237,0-14.142l80.902-80.902c3.905-3.905,10.237-3.905,14.142,0l3.663,3.663   C334.272,73.729,334.272,80.061,330.367,83.966z M232.197,89.24c6.225,6.225,16.318,6.225,22.543,0v0   c6.225-6.225,6.225-16.318,0-22.543s-16.318-6.225-22.543,0l0,0C225.971,72.922,225.971,83.014,232.197,89.24L232.197,89.24z    M329.831,141.788c-6.225-6.225-16.318-6.225-22.543,0s-6.225,16.318,0,22.543l0,0c6.225,6.225,16.318,6.225,22.543,0l0,0   C336.056,158.106,336.056,148.013,329.831,141.788z"/>
	<path style="fill:#EAFAFF;" d="M190.683,32.609l7.678,7.678c4.812,4.812,12.614,4.812,17.426,0l7.678-7.678   c2.311-2.311,5.445-3.609,8.713-3.609h0c6.805,0,12.322,5.517,12.322,12.322V289c0,6.805-5.517,12.322-12.322,12.322h0   c-3.268,0-6.402-1.298-8.713-3.609l-7.678-7.678c-4.812-4.812-12.614-4.812-17.426,0l-7.678,7.678   c-2.311,2.311-5.445,3.609-8.713,3.609h-7.366c-3.268,0-6.402-1.298-8.713-3.609l-7.678-7.678c-4.812-4.812-12.614-4.812-17.426,0   l-7.678,7.678c-2.311,2.311-5.445,3.609-8.713,3.609h-7.366c-3.268,0-6.402-1.298-8.713-3.609l-7.678-7.678   c-4.812-4.812-12.614-4.812-17.426,0l-7.678,7.678c-2.311,2.311-5.445,3.609-8.713,3.609h0c-6.805,0-12.322-5.517-12.322-12.322   V41.322C54.5,34.517,60.017,29,66.822,29h0c3.268,0,6.402,1.298,8.713,3.609l7.678,7.678c4.812,4.812,12.614,4.812,17.426,0   l7.678-7.678c2.311-2.311,5.445-3.609,8.713-3.609h7.366c3.268,0,6.402,1.298,8.713,3.609l7.678,7.678   c4.812,4.812,12.614,4.812,17.426,0l7.678-7.678c2.311-2.311,5.445-3.609,8.713-3.609h7.366   C185.238,29,188.372,30.298,190.683,32.609z"/>
	<path style="fill:#D8E7F2;" d="M84.5,288.932c-0.446,0.338-0.88,0.697-1.287,1.104l-7.678,7.678   c-2.311,2.311-5.445,3.609-8.713,3.609h0c-6.805,0-12.322-5.517-12.322-12.322V41.322C54.5,34.517,60.017,29,66.822,29h0   c3.268,0,6.402,1.298,8.713,3.609l7.678,7.678c0.407,0.407,0.841,0.766,1.287,1.104V288.932z"/>
	<path style="fill:#B1C0CF;" d="M224.5,196.322v60c0,2.761-2.239,5-5,5h-140c-2.761,0-5-2.239-5-5v-60c0-2.761,2.239-5,5-5h140   C222.261,191.322,224.5,193.561,224.5,196.322z M219.5,126.322c0-2.761-2.239-5-5-5h-40c-2.761,0-5,2.239-5,5v10   c0,2.761,2.239,5,5,5h40c2.761,0,5-2.239,5-5V126.322z M84.5,101.322h130c2.761,0,5-2.239,5-5v-10c0-2.761-2.239-5-5-5h-130   c-2.761,0-5,2.239-5,5v10C79.5,99.084,81.739,101.322,84.5,101.322z M84.5,141.322h40c2.761,0,5-2.239,5-5v-10c0-2.761-2.239-5-5-5   h-40c-2.761,0-5,2.239-5,5v10C79.5,139.084,81.739,141.322,84.5,141.322z M84.5,171.322h60c2.761,0,5-2.239,5-5v-10   c0-2.761-2.239-5-5-5h-60c-2.761,0-5,2.239-5,5v10C79.5,169.084,81.739,171.322,84.5,171.322z M214.5,151.322h-30   c-2.761,0-5,2.239-5,5v10c0,2.761,2.239,5,5,5h30c2.761,0,5-2.239,5-5v-10C219.5,153.561,217.261,151.322,214.5,151.322z"/>
	<path style="fill:#013963;" d="M295.69,450.954H101.782c-8.284,0-15-6.716-15-15V202.711c0-8.284,6.716-15,15-15H295.69   c8.284,0,15,6.716,15,15v233.243C310.69,444.238,303.974,450.954,295.69,450.954z"/>
	<path style="fill:#014C7E;" d="M295.69,450.954H125.383c-8.284,0-15-6.716-15-15V202.711c0-8.284,6.716-15,15-15H295.69   c8.284,0,15,6.716,15,15v233.243C310.69,444.238,303.974,450.954,295.69,450.954z"/>
	<path style="fill:#067FC8;" d="M146.693,361.103v10.258c0,5.523-4.477,10-10,10h-16.309c-5.523,0-10-4.477-10-10v-10.258   c0-5.523,4.477-10,10-10h16.309C142.215,351.103,146.693,355.58,146.693,361.103z M136.693,393.464h-16.309   c-5.523,0-10,4.477-10,10v10.258c0,5.523,4.477,10,10,10h16.309c5.523,0,10-4.477,10-10v-10.258   C146.693,397.941,142.215,393.464,136.693,393.464z M168.191,339H184.5c5.523,0,10-4.477,10-10v-10.258c0-5.523-4.477-10-10-10   h-16.309c-5.523,0-10,4.477-10,10V329C158.191,334.523,162.668,339,168.191,339z M168.191,381.361H184.5c5.523,0,10-4.477,10-10   v-10.258c0-5.523-4.477-10-10-10h-16.309c-5.523,0-10,4.477-10,10v10.258C158.191,376.884,162.668,381.361,168.191,381.361z    M136.693,308.742h-16.309c-5.523,0-10,4.477-10,10V329c0,5.523,4.477,10,10,10h16.309c5.523,0,10-4.477,10-10v-10.258   C146.693,313.219,142.215,308.742,136.693,308.742z M232.307,393.464h-64.117c-5.523,0-10,4.477-10,10v10.258   c0,5.523,4.477,10,10,10h64.117c5.523,0,10-4.477,10-10v-10.258C242.307,397.941,237.83,393.464,232.307,393.464z M232.307,308.742   h-16.309c-5.523,0-10,4.477-10,10V329c0,5.523,4.477,10,10,10h16.309c5.523,0,10-4.477,10-10v-10.258   C242.307,313.219,237.83,308.742,232.307,308.742z M232.307,351.103h-16.309c-5.523,0-10,4.477-10,10v10.258   c0,5.523,4.477,10,10,10h16.309c5.523,0,10-4.477,10-10v-10.258C242.307,355.58,237.83,351.103,232.307,351.103z"/>
	<path style="fill:#368ED7;" d="M184.5,381.361h-5.143c-5.523,0-10-4.477-10-10v-10.258c0-5.523,4.477-10,10-10h5.143   c5.523,0,10,4.477,10,10v10.258C194.5,376.884,190.023,381.361,184.5,381.361z M217.165,318.742V329c0,5.523,4.477,10,10,10h5.143   c5.523,0,10-4.477,10-10v-10.258c0-5.523-4.477-10-10-10h-5.143C221.642,308.742,217.165,313.219,217.165,318.742z    M242.307,371.361v-10.258c0-5.523-4.477-10-10-10h-5.143c-5.523,0-10,4.477-10,10v10.258c0,5.523,4.477,10,10,10h5.143   C237.83,381.361,242.307,376.884,242.307,371.361z M169.357,318.742V329c0,5.523,4.477,10,10,10h5.143c5.523,0,10-4.477,10-10   v-10.258c0-5.523-4.477-10-10-10h-5.143C173.834,308.742,169.357,313.219,169.357,318.742z M146.693,413.722v-10.258   c0-5.523-4.477-10-10-10h-5.143c-5.523,0-10,4.477-10,10v10.258c0,5.523,4.477,10,10,10h5.143   C142.215,423.722,146.693,419.245,146.693,413.722z M242.307,413.722v-10.258c0-5.523-4.477-10-10-10h-52.95   c-5.523,0-10,4.477-10,10v10.258c0,5.523,4.477,10,10,10h52.95C237.83,423.722,242.307,419.245,242.307,413.722z M146.693,371.361   v-10.258c0-5.523-4.477-10-10-10h-5.143c-5.523,0-10,4.477-10,10v10.258c0,5.523,4.477,10,10,10h5.143   C142.215,381.361,146.693,376.884,146.693,371.361z M121.55,318.742V329c0,5.523,4.477,10,10,10h5.143c5.523,0,10-4.477,10-10   v-10.258c0-5.523-4.477-10-10-10h-5.143C126.027,308.742,121.55,313.219,121.55,318.742z"/>
	<path style="fill:#FF4927;" d="M256.831,371.361v-52.619c0-5.523,4.477-10,10-10h10.258c5.523,0,10,4.477,10,10v52.619   c0,5.523-4.477,10-10,10h-10.258C261.308,381.361,256.831,376.884,256.831,371.361z"/>
	<path style="fill:#FF5526;" d="M287.089,318.742v52.619c0,5.454-4.368,9.879-9.795,9.99c-5.427-0.111-9.794-4.536-9.794-9.99   v-52.619c0-5.454,4.368-9.879,9.794-9.99C282.721,308.863,287.089,313.289,287.089,318.742z"/>
	<path style="fill:#409A8F;" d="M256.831,413.722v-10.258c0-5.523,4.477-10,10-10h10.258c5.523,0,10,4.477,10,10v10.258   c0,5.523-4.477,10-10,10h-10.258C261.308,423.722,256.831,419.245,256.831,413.722z"/>
	<path style="fill:#53B1A2;" d="M287.089,403.464v10.258c0,5.453-4.368,9.879-9.795,9.99c-5.427-0.11-9.794-4.536-9.794-9.99   v-10.258c0-5.453,4.368-9.879,9.794-9.99C282.721,393.585,287.089,398.011,287.089,403.464z"/>
	<path style="fill:#2FCFDC;" d="M277.089,278.484H120.383c-5.523,0-10-4.477-10-10v-46.567c0-5.523,4.477-10,10-10h156.706   c5.523,0,10,4.477,10,10v46.567C287.089,274.007,282.612,278.484,277.089,278.484z"/>
	<path style="fill:#81E1E9;" d="M277.089,278.484H138.538c-5.523,0-10-4.477-10-10v-46.567c0-5.523,4.477-10,10-10h138.551   c5.523,0,10,4.477,10,10v46.567C287.089,274.007,282.612,278.484,277.089,278.484z"/>
	<path style="fill:#368ED7;" d="M267.5,261.401L267.5,261.401c-3.866,0-7-3.134-7-7V236c0-3.866,3.134-7,7-7h0c3.866,0,7,3.134,7,7   v18.401C274.5,258.267,271.366,261.401,267.5,261.401z M241.5,261.401L241.5,261.401c-3.866,0-7-3.134-7-7V236c0-3.866,3.134-7,7-7   h0c3.866,0,7,3.134,7,7v18.401C248.5,258.267,245.366,261.401,241.5,261.401z M211.5,261.401L211.5,261.401c-3.866,0-7-3.134-7-7   V236c0-3.866,3.134-7,7-7h0c3.866,0,7,3.134,7,7v18.401C218.5,258.267,215.366,261.401,211.5,261.401z M127.5,243L127.5,243   c-3.866,0-7-3.134-7-7v0c0-3.866,3.134-7,7-7h0c3.866,0,7,3.134,7,7v0C134.5,239.866,131.366,243,127.5,243z M191.5,243L191.5,243   c-3.866,0-7-3.134-7-7v0c0-3.866,3.134-7,7-7h0c3.866,0,7,3.134,7,7v0C198.5,239.866,195.366,243,191.5,243z M127.5,263L127.5,263   c-3.866,0-7-3.134-7-7l0,0c0-3.866,3.134-7,7-7h0c3.866,0,7,3.134,7,7l0,0C134.5,259.866,131.366,263,127.5,263z"/>
	<path style="fill:#013963;" d="M378.5,136V66c0-5.523,4.477-10,10-10l0,0c5.523,0,10,4.477,10,10v70c0,5.523-4.477,10-10,10l0,0   C382.977,146,378.5,141.523,378.5,136z"/>
	<path style="fill:#FF4927;" d="M423.5,117.576V496c0,2.761-2.239,5-5,5h-60c-2.761,0-5-2.239-5-5V117.576   c0-1.026,0.316-2.027,0.904-2.867l18.603-26.576c0.936-1.337,2.465-2.133,4.096-2.133h22.793c1.632,0,3.161,0.796,4.096,2.133   l18.603,26.576C423.184,115.549,423.5,116.55,423.5,117.576z"/>
	<path style="fill:#EB4328;" d="M389.5,501h-31c-2.761,0-5-2.239-5-5V117.576c0-1.026,0.315-2.027,0.904-2.867l18.604-26.576   c0.936-1.337,2.464-2.133,4.096-2.133h22.793c1.632,0,3.161,0.796,4.097,2.133l0.007,0.01l-18.596,26.566   c-0.588,0.84-0.904,1.842-0.904,2.867V496C384.5,498.761,386.739,501,389.5,501z"/>
	<path style="fill:#015D96;" d="M342.5,256V136c0-5.523,4.477-10,10-10h72c5.523,0,10,4.477,10,10v120c0,5.523-4.477,10-10,10h-72   C346.977,266,342.5,261.523,342.5,256z"/>
	<path style="fill:#066DAE;" d="M374.5,256V136c0-5.523,4.477-10,10-10h40c5.523,0,10,4.477,10,10v120c0,5.523-4.477,10-10,10h-40   C378.977,266,374.5,261.523,374.5,256z"/>
	<path style="fill:#015D96;" d="M342.5,476V376c0-5.523,4.477-10,10-10h72c5.523,0,10,4.477,10,10v100c0,5.523-4.477,10-10,10h-72   C346.977,486,342.5,481.523,342.5,476z"/>
	<path style="fill:#066DAE;" d="M374.5,476V376c0-5.523,4.477-10,10-10h40c5.523,0,10,4.477,10,10v100c0,5.523-4.477,10-10,10h-40   C378.977,486,374.5,481.523,374.5,476z"/>
	<path style="fill:#013963;" d="M434.5,466h-20c-5.523,0-10-4.477-10-10V326c0-11.046,8.954-20,20-20h0c11.046,0,20,8.954,20,20v130   C444.5,461.523,440.023,466,434.5,466z"/>
</g>















</svg>
